<svg version="1.2" xmlns="http://www.w3.org/2000/svg" viewBox="0 0 2000 2000" width="500" height="500">
	<title>5</title>
	<style>
		.s0 { fill: #fd804f } 
		.s1 { fill: #fdc239 } 
		.s2 { fill: #f5891d } 
		.s3 { fill: #feaf22 } 
		.s4 { fill: #f9a31d } 
		.s5 { fill: #e07a1e } 
	</style>
	<g id="321353356351 1">
		<g id="&lt;Group&gt;">
			<g id="&lt;Group&gt;">
				<path id="&lt;Path&gt;" fill-rule="evenodd" class="s0" d="m257.7 1426.1l103.9 11.2-102.3-858.3 537.6-170.2-117.3-45.8c-268.5 49.4-594.5 207.5-594.5 207.5 0 0-46.1 456.4 115 846.8z"/>
				<path id="&lt;Path&gt;" fill-rule="evenodd" class="s1" d="m133 582.3c0 0 326-153.4 594.5-201.3l1189 450.6z"/>
				<path id="&lt;Path&gt;" fill-rule="evenodd" class="s2" d="m1089 1528.7c0 0 122.7-73.8 224-29.9l-112-136.6-249.8 128.4z"/>
				<path id="&lt;Path&gt;" fill-rule="evenodd" class="s2" d="m1919.2 1114.1c0 0-43.9-10.5-42.5-103.3l-43.3 9.4v85.8z"/>
				<path id="&lt;Path&gt;" fill-rule="evenodd" class="s3" d="m1860.3 1052.6c0-32.8 25.6-59.5 57.8-61.5-0.9-93.8-1.6-159.5-1.6-159.5 0 0-1591.7-297.2-1783.5-249.3 0 0-47.9 460.3 124.7 843.8 0 0 415.9 50.8 831.3 102.6 23.4-43.9 69.5-73.8 122.7-73.8 65.4 0 120.1 45.2 135 106 309.9 39.1 566 72.4 569.8 76.1 5.8 5.8 4.6-288.4 2.7-522.9-32.8-1.4-58.9-28.4-58.9-61.5z"/>
				<path id="&lt;Path&gt;" fill-rule="evenodd" class="s2" d="m273.7 703.8c-68.3 23.9-83.1 166.2-32 223.7 51.1 57.5 162.4-63.9 196.3-95.9 33.8-31.9-17.7-179.2-164.3-127.8z"/>
				<path id="&lt;Path&gt;" fill-rule="evenodd" class="s2" d="m438 1293.4c29.7-75.4 78.6-143.8 148.9-136.6 70.3 7.2 25.6 167-25.6 205.4-51.1 38.3-143.9-16.5-123.3-68.8z"/>
				<path id="&lt;Path&gt;" fill-rule="evenodd" class="s4" d="m257.7 1426.1c0 0 415.9 50.8 831.3 102.6 23.4-43.9 69.5-73.8 122.7-73.8 65.4 0 120.1 45.2 135 106 309.9 39.1 566 72.4 569.8 76.1 5.8 5.8 4.6-288.4 2.7-522.9-559.8 327.3-1661.5 312-1661.5 312z"/>
				<path id="&lt;Path&gt;" fill-rule="evenodd" class="s2" d="m951.2 968.3c-39.4-36.4-242.9-168.6-268.4-136.7-25.6 32 134.2 280 185.3 264.7 51.2-15.4 134.3-80.9 83.1-128z"/>
				<path id="&lt;Path&gt;" fill-rule="evenodd" class="s2" d="m1539.3 1265.6c-60.5 50.1-70.3 131.7 0 171.7 70.3 39.9 217.4 46.6 236.5 8.1 19.2-38.5-6.4-210.1-31.9-255.4-25.6-45.2-134.3 17.5-204.6 75.6z"/>
				<path id="&lt;Path&gt;" fill-rule="evenodd" class="s2" d="m1238.9 900.1c-49.3 25.7-32 119 0 146.7 32 27.7 166.2-27.3 159.8-73.3-6.4-46-70.3-119.9-159.8-73.4z"/>
				<path id="&lt;Path&gt;" fill-rule="evenodd" class="s2" d="m967.3 1322.8c23.2-37.2 90-101.3 164.8-101.3 74.8 0 115.5 28.8 76 71.9-39.5 43.2-118.1 142.3-184.3 143.9-66.2 1.6-86.4-66.7-56.5-114.5z"/>
				<path id="&lt;Path&gt;" fill-rule="evenodd" class="s5" d="m1539.3 1437.3c70.3 39.9 217.4 46.6 236.5 8.1 18.3-36.5-3.9-193.2-28.1-247.5-68.2 28-140.7 52.5-215.5 74.1-54 50.4-60.3 127 7.1 165.3z"/>
				<path id="&lt;Path&gt;" fill-rule="evenodd" class="s5" d="m1151.3 1356c-66.3 11-132.1 20.2-196.1 28 5.7 29.9 28.8 54.2 68.6 53.3 41.9-1 88.8-41.1 127.5-81.3z"/>
			</g>
		</g>
	</g>
</svg>