<svg version="1.2" xmlns="http://www.w3.org/2000/svg" viewBox="0 -1 500 501" width="500" height="501">
	<title>4</title>
	<defs>
		<linearGradient id="g1" x2="1" gradientUnits="userSpaceOnUse" gradientTransform="matrix(46.724,1324.738,-523.391,18.46,263.826,-306.448)">
			<stop offset="0" stop-color="#ffd188"/>
			<stop offset=".5" stop-color="#e58e0e"/>
			<stop offset="1" stop-color="#5c3600"/>
		</linearGradient>
		<linearGradient id="g2" x2="1" gradientUnits="userSpaceOnUse" gradientTransform="matrix(10.35,540.62,-229.733,4.398,285.35,-15.355)">
			<stop offset="0" stop-color="#ffd188"/>
			<stop offset=".5" stop-color="#e58e0e"/>
			<stop offset="1" stop-color="#5c3600"/>
		</linearGradient>
		<linearGradient id="g3" x2="1" gradientUnits="userSpaceOnUse" gradientTransform="matrix(58.851,1668.574,-845.617,29.825,280.57,-651.797)">
			<stop offset="0" stop-color="#ffd188"/>
			<stop offset=".5" stop-color="#e58e0e"/>
			<stop offset="1" stop-color="#5c3600"/>
		</linearGradient>
		<linearGradient id="g4" x2="1" gradientUnits="userSpaceOnUse" gradientTransform="matrix(218.142,1218.411,-626.478,112.164,321.984,120.541)">
			<stop offset="0" stop-color="#ffd188"/>
			<stop offset=".5" stop-color="#e58e0e"/>
			<stop offset="1" stop-color="#5c3600"/>
		</linearGradient>
		<linearGradient id="g5" x2="1" gradientUnits="userSpaceOnUse" gradientTransform="matrix(105.735,590.572,-566.629,101.448,318.214,226.694)">
			<stop offset="0" stop-color="#ffd188"/>
			<stop offset=".5" stop-color="#e58e0e"/>
			<stop offset="1" stop-color="#5c3600"/>
		</linearGradient>
		<linearGradient id="g6" x2="1" gradientUnits="userSpaceOnUse" gradientTransform="matrix(49.29,275.307,-418.694,74.962,266.048,47.818)">
			<stop offset="0" stop-color="#ffd188"/>
			<stop offset=".5" stop-color="#e58e0e"/>
			<stop offset="1" stop-color="#5c3600"/>
		</linearGradient>
	</defs>
	<style>
		.s0 { fill: transparent } 
		.s1 { fill: url(#g1) } 
		.s2 { opacity: .3;mix-blend-mode: multiply;fill: #e58e0e } 
		.s3 { fill: url(#g2) } 
		.s4 { fill: url(#g3) } 
		.s5 { fill: url(#g4) } 
		.s6 { fill: url(#g5) } 
		.s7 { fill: url(#g6) } 
		.s8 { mix-blend-mode: soft-light;fill: #ffffff } 
	</style>
	<g id="BACKGROUND">
		<path id="&lt;Path&gt;" class="s0" d="m500 500h-500v-500h500z"/>
	</g>
	<g id="OBJECTS">
		<g id="&lt;Group&gt;">
			<g id="&lt;Group&gt;">
				<path id="&lt;Path&gt;" fill-rule="evenodd" class="s1" d="m32.8 258.6c6.4 42.7 22.5 88.6 44 136.4 7.3 16.3 23 27.2 40.8 28.4 100.5 6.5 196 10.4 266.2 1.7 15.7-2 29.4-11.7 36.6-25.9 18.5-36.2 33.1-86.2 46.5-140.6z"/>
				<path id="&lt;Path&gt;" fill-rule="evenodd" class="s2" d="m108.3 270.1c16.2 6.4 32 13.9 48.7 19.1 21.6 6.6 44 10.4 66.5 11.1 23.3 0.7 47.2-1.8 69.3 5.4 22.1 7.1 42.3 27.8 39 50.8-2.5 17.7-18.3 31.2-35.4 36.4-17.1 5.2-35.4 3.9-53.3 2.4q-75.6-6.1-151.2-12.1c-6.8-0.6-13.9-1.1-20.9-1.2q2.8 6.4 5.8 13c7.3 16.3 23 27.2 40.8 28.4 100.5 6.5 196 10.4 266.2 1.7 15.7-2 29.4-11.7 36.6-25.9 18.5-36.2 33.1-86.2 46.5-140.6h-380.6c6 5.7 14.5 8.5 22 11.5z"/>
				<path id="&lt;Path&gt;" fill-rule="evenodd" class="s3" d="m285.2 443.8c-53.1 0-111.3-3-168.5-6.7-22.9-1.5-43-15.5-52.5-36.5-24.3-54-41.9-106-42.3-149.2l31.7 7.2c5.6 37.7 12.4 79.1 35.7 130.7 5.3 11.8 16.4 19.5 29.2 20.4 95 6.1 192.7 10.6 263.6 1.7 11.2-1.3 20.9-8.2 26.1-18.4 19.6-38.4 25.7-88.8 36.5-132.7l32.1-9.8c-5.8 51.2-23.2 114.1-44.1 155-9.4 18.3-27 30.7-47.2 33.2-29.8 3.7-63.8 5.1-100.3 5.1z"/>
			</g>
			<g id="&lt;Group&gt;">
				<g id="&lt;Group&gt;">
					<path id="&lt;Path&gt;" fill-rule="evenodd" class="s4" d="m32.8 258.6c2.2-54.7 12.6-108.2 30.7-160.6 6.1-17.6 21.7-30.1 40.2-31.8 81.5-7.7 179.2-8.9 284.4-7 20.2 0.3 38.1 13.6 44.1 33 19.7 62.6 34.1 120.6 34.7 166.4-135.3 28-281.1 24.7-434.1 0z"/>
					<path id="&lt;Path&gt;" fill-rule="evenodd" class="s2" d="m466.9 258.6c-0.6-45.8-15-103.8-34.7-166.4-6-19.4-23.9-32.7-44.1-33q-12.2-0.2-24.3-0.4c0.2 21.6-2.6 43.1-8.5 63.9-13.3 46.9-42.2 89.3-81 118.9-7 5.3-14.7 10.8-17.7 19.1-2.1 5.8-1.5 11.9 0.8 17.7 72.1 0.3 142.1-5.9 209.5-19.8z"/>
				</g>
				<path id="&lt;Path&gt;" fill-rule="evenodd" class="s5" d="m263.2 292.2c-68.8 0-141.6-6-219.3-17.9-14.8-2.3-25.2-15.8-23.8-30.7 6.3-64.8 35.7-147.2 45.6-175.7 0.4-1.3 1.5-2.3 2.8-2.8 10.9-3.5 22.5-4.6 34.6-3.8 3 0.1 5 3.1 4 5.9-18.9 52.8-54.9 130.3-59.6 179-0.1 0.5 0.2 0.9 0.6 0.9 149.4 23 279.7 23.5 398.5 1.5 3.4-0.6 5.7-3.6 5.3-6.8-4.8-38.8-53.6-152.8-65.2-179.3-1.2-2.8 0.7-6 3.8-6.2 8.7-0.7 19-0.1 29.9 0.9 1.7 0.2 3.1 1.3 3.7 2.9 7 18.9 49.8 135.6 55.1 178.3 2.1 17.6-10 33.9-27.6 37.2-59.7 11.1-122.3 16.6-188.4 16.6z"/>
			</g>
			<g id="&lt;Group&gt;">
				<path id="&lt;Path&gt;" fill-rule="evenodd" class="s6" d="m317.7 257.7c0 38.3-27.8 66-66.2 66-38.3 0-69.4-31.1-69.4-69.5 0-38.3 36.4-60.6 74.8-60.6 38.3 0 60.8 25.7 60.8 64.1z"/>
				<path id="&lt;Path&gt;" fill-rule="evenodd" class="s7" d="m270.9 250c0-11.7-7.5-20.1-19.2-20.1-11.7 0-23.2 7.3-23.2 19 0 8.9 5.5 16.5 13.3 19.6-1.7 10.1-3.4 22.1-3.4 23.1 0 2.8 24.3 3.9 24.8 1.2-1-8.4-2.6-16.5-4.7-24.4 7.3-3 12.4-9.8 12.4-18.4z"/>
			</g>
			<g id="&lt;Group&gt;">
				<path id="&lt;Path&gt;" fill-rule="evenodd" class="s8" d="m152.9 77.3c-12.5 2.1-24.9 6.7-34.6 15-13.4 11.7-19.9 29.3-24.3 46.5-1.2 4.5-2.2 9.2-1.4 13.7 0.7 4.6 3.7 9.1 8.2 10.3 3.9 1 8-0.6 11.6-2.5 27.2-14 44.4-42.2 70.1-58.9 3.1-2 6.3-3.8 9-6.4 2.7-2.5 4.8-5.9 4.8-9.6 0.2-8.8-7.6-9.9-14.2-9.9-9.7-0.1-19.5 0.2-29.2 1.8z"/>
				<path id="&lt;Path&gt;" fill-rule="evenodd" class="s8" d="m84.7 205.2c0.2 1.6 0.5 3.3 1.3 4.7 0.8 1.4 2.2 2.5 3.8 2.7 2.8 0.1 4.8-2.6 6.3-5q2.7-4.5 5.4-9c2-3.4 4-6.8 4.8-10.7 1.4-7.1-3.4-14.2-11.2-12.8-6.2 1-8.4 9.4-9.6 14.6-1.2 5.1-1.4 10.4-0.8 15.5z"/>
			</g>
		</g>
	</g>
</svg>