<svg version="1.2" xmlns="http://www.w3.org/2000/svg" viewBox="0 0 1000 1000" width="500" height="500">
	<title>25559457_7064456-ai</title>
	<defs>
		<linearGradient id="g1" x2="1" gradientUnits="userSpaceOnUse" gradientTransform="matrix(16.714,1610.725,-1445.279,14.997,920.154,-65.874)">
			<stop offset="0" stop-color="#e6ffdc"/>
			<stop offset=".5" stop-color="#a6d700"/>
			<stop offset="1" stop-color="#0b3f00"/>
		</linearGradient>
		<linearGradient id="g2" x2="1" gradientUnits="userSpaceOnUse" gradientTransform="matrix(-154.956,3066.27,-3232.078,-163.335,972.916,-1237.384)">
			<stop offset="0" stop-color="#e6ffdc"/>
			<stop offset=".5" stop-color="#a6d700"/>
			<stop offset="1" stop-color="#0b3f00"/>
		</linearGradient>
		<linearGradient id="g3" x2="1" gradientUnits="userSpaceOnUse" gradientTransform="matrix(79.878,2087.737,-2164.726,82.824,614.292,-1304.329)">
			<stop offset="0" stop-color="#e6ffdc"/>
			<stop offset=".5" stop-color="#a6d700"/>
			<stop offset="1" stop-color="#0b3f00"/>
		</linearGradient>
	</defs>
	<style>
		.s0 { fill: #ffffff } 
		.s1 { fill: url(#g1) } 
		.s2 { fill: url(#g2) } 
		.s3 { fill: url(#g3) } 
		.s4 { mix-blend-mode: soft-light;fill: #ffffff } 
		.s5 { opacity: .2;mix-blend-mode: multiply;fill: #0b3f00 } 
	</style>
	<g id="BACKGROUND">
		<path id="&lt;Path&gt;" class="s0" d="m1000 1000h-1000v-1000h1000z"/>
	</g>
	<g id="OBJECTS">
		<g id="&lt;Group&gt;">
			<path id="&lt;Path&gt;" class="s1" d="m417.6 585.6c-39.1 124.6-156.6 257-281.1 296.8-6.6 2.1-12.1 5.6-14.6 10.3-17.5 32.8 21.9 69.3 75.3 73.5 6.5 0.5 13-0.4 18.3-2.6 169.6-68.9 229.5-245.4 238.6-373.1z"/>
			<path id="&lt;Path&gt;" class="s2" d="m308.6 416.9c0 0-302.7-182-40.5-342.8 262.2-160.8 252.6 202.5 252.6 202.5 0 0 165.9-278.6 343.1-53.6 177.2 225-200.3 256.2-200.3 256.2 0 0 305.7 214.6 49.2 313.1-256.4 98.6-277.1-188.6-277.1-188.6 0 0-281.2 271.8-338.4 14.1-54.1-243.5 211.4-200.9 211.4-200.9z"/>
			<path id="&lt;Compound Path&gt;" fill-rule="evenodd" class="s3" d="m379.6 258.2c71 52.5 85 109 86.9 138.8 0.6 9.4-10.1 15.4-17.6 9.7-57.7-43.4-79-103.4-86.8-137.3-2.3-10 9.2-17.3 17.5-11.2zm150.6 266.6c71.1 52.5 85.1 109 87 138.7 0.6 9.5-10.1 15.5-17.6 9.8-57.7-43.4-79.1-103.4-86.8-137.3-2.3-10 9.2-17.3 17.4-11.2zm-273.1 47.4c58.8-65.9 116.3-74.6 146.2-73.7 9.4 0.2 14.4 11.4 8 18.4-48.6 53.4-110.3 69.1-144.7 73.7-10.2 1.3-16.4-10.8-9.5-18.4zm429.8-212.4c-57.9 66.7-115.2 76.3-145.1 75.8-9.4-0.1-14.5-11.2-8.3-18.3 47.8-54.1 109.3-70.7 143.6-75.7 10.2-1.5 16.6 10.5 9.8 18.2z"/>
			<g id="&lt;Group&gt;">
				<path id="&lt;Path&gt;" class="s4" d="m257.4 125.4c-4 4.7-7.7 9.8-9.6 15.8-1.9 5.9-1.7 12.8 2 17.8 3.1 4.3 8.2 6.7 13.3 8.5 20.5 7.4 43.3 8.1 64.2 2 21-6.1 39.9-18.9 53.2-36.2 8.4-10.8 14.8-23.8 14.8-37.5 0.1-10.8-4.4-22.1-12.9-29-8.4-6.9-21.7-1.9-31.4 0.4-23.1 5.6-45.1 16-64.2 30.3-10.8 8.1-20.8 17.4-29.4 27.9z"/>
				<path id="&lt;Path&gt;" class="s4" d="m597.4 217.7c-2.6 4.3-4.9 9-5.3 14-0.5 5 1.4 10.4 5.7 13.1 5.7 3.7 13.2 1.3 19.4-1.4 14.2-6.2 27.9-13.3 41.1-21.3 5.9-3.6 11.8-7.6 15.3-13.4 4.3-7.4 3.8-17.4-1.2-24.3-21-29-63.8 15-75 33.3z"/>
			</g>
			<path id="&lt;Path&gt;" class="s5" d="m863.8 223c-12.1-15.3-24.1-28.2-36-39.1 2.8 12.1 4.2 24.4 4.1 36.9-0.9 65.1-44.3 127.6-105 151-33.5 13-70.5 14.7-104.3 26.7-33.8 12-66.8 39.8-66.8 75.8-0.1 35.6 30.8 62.2 54.1 89.1 23.4 27 39.7 71.2 13.6 95.5-19.3 17.8-51.8 12.2-71.8-4.7-20.1-17-31-42.1-42.2-65.8-11.3-23.7-24.7-48.1-47.4-61.3-46-26.9-103.8 4.4-144.4 39-40.5 34.6-85 76.4-138 71-34.9-3.6-62.2-26.4-88-52.7 1.2 10.5 2.8 21.5 5.5 33.4 57.2 257.7 338.4-14.1 338.4-14.1 0 0 20.7 287.2 277.1 188.6 256.5-98.5-49.2-313.1-49.2-313.1 0 0 377.5-31.2 200.3-256.2z"/>
		</g>
	</g>
</svg>