<svg version="1.2" xmlns="http://www.w3.org/2000/svg" viewBox="0 -1 500 501" width="500" height="501">
	<title>4</title>
	<defs>
		<linearGradient id="g1" x2="1" gradientUnits="userSpaceOnUse" gradientTransform="matrix(89.116,1412.636,-1208.23,76.221,421.562,-18.094)">
			<stop offset="0" stop-color="#aef4e9"/>
			<stop offset=".5" stop-color="#27ba9e"/>
			<stop offset="1" stop-color="#114939"/>
		</linearGradient>
		<linearGradient id="g2" x2="1" gradientUnits="userSpaceOnUse" gradientTransform="matrix(0,818.371,-421.17,0,304.817,110.629)">
			<stop offset="0" stop-color="#aef4e9"/>
			<stop offset=".5" stop-color="#27ba9e"/>
			<stop offset="1" stop-color="#114939"/>
		</linearGradient>
		<linearGradient id="g3" x2="1" gradientUnits="userSpaceOnUse" gradientTransform="matrix(0,1353.397,-1567.816,0,274.372,302.203)">
			<stop offset="0" stop-color="#aef4e9"/>
			<stop offset=".5" stop-color="#27ba9e"/>
			<stop offset="1" stop-color="#114939"/>
		</linearGradient>
		<linearGradient id="g4" x2="1" gradientUnits="userSpaceOnUse" gradientTransform="matrix(394.809,1418.087,-1428.689,397.76,350.645,-309.054)">
			<stop offset="0" stop-color="#aef4e9"/>
			<stop offset=".5" stop-color="#27ba9e"/>
			<stop offset="1" stop-color="#114939"/>
		</linearGradient>
	</defs>
	<style>
		.s0 { fill: url(#g1) } 
		.s1 { fill: url(#g2) } 
		.s2 { fill: url(#g3) } 
		.s3 { fill: url(#g4) } 
		.s4 { opacity: .2;mix-blend-mode: multiply;fill: #114939 } 
		.s5 { mix-blend-mode: soft-light;fill: #ffffff } 
	</style>
	<g id="BACKGROUND">
	</g>
	<g id="OBJECTS">
		<g id="&lt;Group&gt;">
			<path id="&lt;Path&gt;" fill-rule="evenodd" class="s0" d="m221 446.6c-84.4-79.6-160-158.1-207.1-233.5-6-9.6-6.5-21.6-1.5-31.8 20.5-41.8 53.9-82.3 92.9-122.1 5.6-5.7 13-9.3 21-9.9 93.8-6.9 184.4-7.3 271 0.2 10 0.9 19.1 6.4 24.5 14.9 28.3 43.9 49.8 92.1 66.6 143.3 3.6 10.8 1.3 22.9-6.2 31.5-64.3 74-137.8 143.2-218.1 208.9-12.7 10.3-31.1 9.7-43.1-1.5z"/>
			<g id="&lt;Group&gt;">
				<path id="&lt;Path&gt;" fill-rule="evenodd" class="s1" d="m397.3 49.5c-86.6-7.5-177.2-7.1-271-0.2-6 0.5-11.7 2.6-16.5 6 11.9 48.2 27.8 93 49.3 132.9 2.8 5.2 8 8.6 13.9 9.5 50.4 7.9 111.1 5.5 175.7-0.7 5.8-0.5 11.1-3.8 14.2-8.8 19.7-31.6 37.8-77.2 55.3-128.4-5.5-5.8-12.8-9.6-20.9-10.3z"/>
				<path id="&lt;Path&gt;" fill-rule="evenodd" class="s2" d="m153.2 194.4c-47.1-3.5-95.1-3.1-144.1 1.1-0.1 6.1 1.4 12.3 4.8 17.6 47.1 75.4 122.7 153.9 207.1 233.5 4.3 4 9.3 6.6 14.6 7.9-9-85.8-30.5-168-63.8-246.7-3.2-7.6-10.4-12.8-18.6-13.4z"/>
				<path id="&lt;Path&gt;" fill-rule="evenodd" class="s3" d="m371.1 198.3c-6.6-0.4-12.8 3.1-16 8.9-47.8 86.3-89.5 169.5-120.3 247.1 9.9 2.7 20.9 0.7 29.3-6.2 80.3-65.7 153.8-134.9 218.1-208.9 4.9-5.7 7.6-12.9 7.8-20.2-36.9-11-76.7-17.8-118.9-20.7z"/>
			</g>
			<path id="&lt;Path&gt;" fill-rule="evenodd" class="s4" d="m421.8 64.4c-3-4.7-7.1-8.4-11.9-11 6.2 28.8 8.9 57.9 6.3 87.5-3.2 37-13.8 73.5-31.7 106.1-42.6 77.9-125.6 132.2-214 140.1-3.3 0.3-6.6 0.6-10 0.8 19.4 19.5 39.7 39 60.5 58.7 12 11.2 30.4 11.8 43.1 1.5 80.3-65.7 153.8-134.9 218.1-208.9 7.5-8.6 9.8-20.7 6.2-31.5-16.8-51.2-38.3-99.4-66.6-143.3z"/>
			<g id="&lt;Group&gt;">
				<path id="&lt;Path&gt;" fill-rule="evenodd" class="s5" d="m130.6 69c-7.4 1.2-15.1 2.8-20.9 7.5-5.8 4.8-8.9 13.5-5.1 20 3.1 5.1 9.4 7.1 15.2 8.6 21.7 5.5 44.2 8.7 66.6 7.1 22.4-1.7 44.6-8.3 63.1-21 4.4-3.1 8.8-6.8 11.3-11.6 2.6-5.4 3-15.6-4.5-16.7-9.6-1.4-20.4-0.3-30.1-0.3-20.4 0-40.9 0.4-61.2 2.1-11.5 1-23 2.4-34.4 4.3z"/>
				<path id="&lt;Path&gt;" fill-rule="evenodd" class="s5" d="m282.6 69.3c-2.9 0.9-6.1 2.4-7.2 5.3-0.7 2.1-0.2 4.5 1 6.3 1.2 1.9 3 3.3 4.8 4.5 7.6 4.9 17.1 6.7 26 5.1 3.7-0.7 7.3-2 10.2-4.5 2.8-2.4 4.7-6.1 4.4-9.8-0.6-7.6-9.1-9-15.1-9.6-8.1-0.8-16.3 0.1-24.1 2.7z"/>
			</g>
		</g>
	</g>
</svg>