<svg version="1.2" xmlns="http://www.w3.org/2000/svg" viewBox="0 -1 500 501" width="500" height="501">
	<title>3_Done</title>
	<defs>
		<linearGradient id="g1" x2="1" gradientUnits="userSpaceOnUse" gradientTransform="matrix(759.704,2696.645,-3040.125,856.47,154.499,-1256.665)">
			<stop offset="0" stop-color="#cfb7ff"/>
			<stop offset=".33" stop-color="#7443dc"/>
			<stop offset=".66" stop-color="#4a2792"/>
			<stop offset="1" stop-color="#140025"/>
		</linearGradient>
		<linearGradient id="g2" x2="1" gradientUnits="userSpaceOnUse" gradientTransform="matrix(554.468,1968.186,-2334.533,657.674,477.84,206.603)">
			<stop offset="0" stop-color="#ffd188"/>
			<stop offset=".5" stop-color="#e58e0e"/>
			<stop offset="1" stop-color="#5c3600"/>
		</linearGradient>
		<linearGradient id="g3" x2="1" gradientUnits="userSpaceOnUse" gradientTransform="matrix(550.138,1952.814,-2276.94,641.449,266.42,-388.325)">
			<stop offset="0" stop-color="#cfb7ff"/>
			<stop offset=".33" stop-color="#7443dc"/>
			<stop offset=".66" stop-color="#4a2792"/>
			<stop offset="1" stop-color="#140025"/>
		</linearGradient>
		<linearGradient id="g4" x2="1" gradientUnits="userSpaceOnUse" gradientTransform="matrix(-12.981,2336.715,-3532.245,-19.623,588.738,-667.452)">
			<stop offset="0" stop-color="#cfb7ff"/>
			<stop offset=".33" stop-color="#7443dc"/>
			<stop offset=".66" stop-color="#4a2792"/>
			<stop offset="1" stop-color="#140025"/>
		</linearGradient>
		<linearGradient id="g5" x2="1" gradientUnits="userSpaceOnUse" gradientTransform="matrix(519.064,1842.467,-2114.9,595.814,62.039,-852.618)">
			<stop offset="0" stop-color="#cfb7ff"/>
			<stop offset=".33" stop-color="#7443dc"/>
			<stop offset=".66" stop-color="#4a2792"/>
			<stop offset="1" stop-color="#140025"/>
		</linearGradient>
		<linearGradient id="g6" x2="1" gradientUnits="userSpaceOnUse" gradientTransform="matrix(1057.875,3755.029,-4197.425,1182.507,80.089,-1306.058)">
			<stop offset="0" stop-color="#ffd188"/>
			<stop offset=".5" stop-color="#e58e0e"/>
			<stop offset="1" stop-color="#5c3600"/>
		</linearGradient>
	</defs>
	<style>
		.s0 { fill: url(#g1) } 
		.s1 { fill: url(#g2) } 
		.s2 { fill: url(#g3) } 
		.s3 { fill: url(#g4) } 
		.s4 { fill: url(#g5) } 
		.s5 { mix-blend-mode: soft-light;fill: #ffffff } 
		.s6 { fill: url(#g6) } 
	</style>
	<g id="BACKGROUND">
	</g>
	<g id="OBJECTS">
		<g id="&lt;Group&gt;">
			<path id="&lt;Path&gt;" fill-rule="evenodd" class="s0" d="m471.3 384.8c-26.3-117.6-45.9-248.7-78.1-327.1-2.9-7.2-10.7-11.1-18.2-9.2-98.1 24.4-218 59.9-271.4 82.1-3.6 1.5-5.7 5.3-4.8 9.1 21.4 100.4 53.6 203.6 86.1 292.4l-16.1-11.6-36.8 34.6c6.6 5.8 64.5 14.4 72.2 13.2q0 0 0 0 0.8 0 1.6-0.1c95.8-21.4 197.2-47.2 260.7-74.1 3.7-1.5 5.7-5.4 4.8-9.3z"/>
			<path id="&lt;Path&gt;" fill-rule="evenodd" class="s1" d="m437 383.7c-61 25.9-134.4 50.2-227.8 69.6-18.3 3.8-48.9-10-50.3-13.7-34.8-91.3-52.1-192.3-75.1-300.2-0.8-3.6 1.2-7.3 4.6-8.8 51.4-21.3 154.2-68.2 248.5-91.7 7.2-1.8 26.9 14.8 29.8 21.7 30.8 75.3 49.6 201.3 74.9 314.2 0.9 3.7-1.1 7.5-4.6 8.9z"/>
			<g id="&lt;Group&gt;">
				<path id="&lt;Path&gt;" fill-rule="evenodd" class="s2" d="m398.8 382.1c-63.5 26.9-164.9 52.7-260.7 74.1-3.9 0.8-7.9-1.3-9.3-5.1-36.3-95.1-73.7-211.1-97.7-323.4-0.9-3.8 1.2-7.6 4.8-9.1 53.4-22.2 173.3-57.7 271.4-82.1 7.5-1.9 15.3 2 18.2 9.2 32.2 78.4 51.8 209.5 78.1 327.1 0.9 3.9-1.1 7.7-4.8 9.3z"/>
				<path id="&lt;Path&gt;" fill-rule="evenodd" class="s3" d="m403.6 372.8c-26.3-117.6-45.9-248.7-78.1-327.1-2.9-7.2-10.7-11.1-18.2-9.2q-7.3 1.8-14.7 3.7c26.5 52.5 36.9 113.2 28 171.4-12.7 82.3-63.8 157.9-135.5 200.3-19.2 11.3-39.8 20.4-59.4 31.1 1.1 2.7 2.1 5.5 3.1 8.1 1.4 3.8 5.4 5.9 9.3 5.1 95.8-21.4 197.2-47.2 260.7-74.1 3.7-1.6 5.7-5.4 4.8-9.3z"/>
				<path id="&lt;Path&gt;" fill-rule="evenodd" class="s4" d="m217.6 143.1c-32.2 6-61.2 27.7-76 57-14.8 29.2-15.2 65.4-0.9 94.9 11.9 24.8 34.1 44.7 60.5 52.6 26.3 7.9 56.5 3 78.1-13.9 21.7-17 33.7-45.9 29.1-73-4.1-23.5-20.4-44.5-42.2-54.1-15.7-7-34.6-7.9-49.9 0-15.3 7.9-25.8 25.5-23 42.5 2.9 17 20.6 30.8 37.5 27.1 5.4-1.2 11.1-5.2 10.9-10.7-0.4-7.1-9.9-10.4-11.9-17.2-1.5-5.1 2.2-10.7 7.1-12.7 5-1.9 10.7-0.8 15.4 1.6 13.8 6.9 20.5 24.8 15.9 39.6-4.5 14.7-18.9 25.5-34.3 27.3-15.3 1.8-31.1-4.7-42-15.6-10.9-11-17.2-26-19.2-41.4-2.3-18.7 1.8-38.7 13.8-53.3 12.1-14.5 32.5-22.5 50.7-17.3 8.6 2.5 16.1 7.5 23.6 12.3 7.6 4.8 15.5 9.4 24.3 10.8 8.7 1.5 18.7-1 24-8.1 13.8-18.3-12.1-32.9-25-39.2-20.5-9.8-44.1-13.3-66.5-9.2z"/>
				<path id="&lt;Path&gt;" fill-rule="evenodd" class="s5" d="m86.1 137.4c-6.3 8.1-10.1 17.9-12.4 27.9-3.2 13.2-4.1 27-1.9 40.3 2.2 13.4 7.8 26.3 16.5 36.6 2.1 2.4 4.9 4.8 8 4 2.9-0.7 4.3-3.9 5-6.8 3.4-12.7 2.7-26.1 3.1-39.2 0.5-13.1 2.3-26.9 10-37.5 4.1-5.7 9.8-10.3 13.5-16.2 3.8-6 5.3-14.3 0.9-19.8-11.8-14.5-34.3-0.1-42.7 10.7z"/>
				<path id="&lt;Compound Path&gt;" fill-rule="evenodd" class="s6" d="m67.9 117.4c0 0 4.7 19-1.4 23.1-6.1 4-14.6 3.4-14.6 3.4 0 0-1 28.5-8.7 30.9-7.6 2.4-15.1-45.7-14.1-54.1 0.8-6.8 43.7-19.8 61.6-25 3.6-1 6.3 3.2 4 6.1-8.2 9.9-26.8 15.6-26.8 15.6zm187.7-67.6c0.3 6.2 35.3 2.2 35.3 2.2 0 0 1.1 13.5 7.8 16.5 6.8 2.9 15.7-2.7 15.7-2.7 0 0 22.4 27.2 25.6 20.9 2.5-4.8-9.6-35.4-15.3-49.1-1.6-3.9-5.8-6.2-10-5.5-19.1 3.4-59.3 12.4-59.1 17.7zm-140.1 355.2c-2.4-2.1-6.1 0.2-5.2 3.3 4.1 15.2 13.3 46.1 21.2 48.3 10.6 2.9 42.6-2.4 43.2-8.5 0.6-6.1-25.7-8.5-25.7-8.5 0 0 4.7-8.7-3.1-15.9-7.7-7.2-17.1-3.5-17.1-3.5 0 0-5.9-8.7-13.3-15.2zm275.6-91.2c-2.8-1.1-5 15.7-4.2 24.3 0 0-9.7 3.5-9.7 13 0 9.4 9.5 12.9 9.5 12.9 0 0-29.4 26.5-25.7 32.5 3.8 6.1 46.4-9.6 48.3-17.9 1.9-8.4-6.3-60-18.2-64.8z"/>
			</g>
		</g>
	</g>
</svg>