<svg version="1.2" xmlns="http://www.w3.org/2000/svg" viewBox="0 0 2000 2000" width="500" height="500">
	<title>5</title>
	<style>
		.s0 { fill: #fde3d0 } 
		.s1 { fill: #f5d2b8 } 
		.s2 { fill: #fff3eb } 
		.s3 { fill: #99afc2 } 
		.s4 { fill: #839eb3 } 
		.s5 { fill: #667f91 } 
		.s6 { fill: #4f6370 } 
		.s7 { fill: #cad5dd } 
		.s8 { fill: #829dad } 
	</style>
	<g id="321353356351 1">
		<g id="&lt;Group&gt;">
			<g id="&lt;Group&gt;">
				<g id="&lt;Group&gt;">
					<path id="&lt;Path&gt;" fill-rule="evenodd" class="s0" d="m1826.6 1504.9c-524.1 212.8-1129.7 212.8-1653.8 0-29.4-12-47.8-38.1-47.8-66.3v-884.2h1749.4v884.2c0 28.2-18.4 54.3-47.8 66.3z"/>
					<path id="&lt;Path&gt;" fill-rule="evenodd" class="s1" d="m1826.6 1504.9c29.4-12 47.8-38.1 47.8-66.3v-884.2h-204.6v498.3c0 200.9-135.5 385.2-348.1 463.5-217 80-452.7 116.1-636 126.1 383.6 54.3 781.4 8.5 1140.9-137.4z"/>
					<path id="&lt;Path&gt;" fill-rule="evenodd" class="s2" d="m265 1539.6c85.8 30.3 173.5 54.6 262.3 73.8v-1059h-262.3z"/>
					<path id="&lt;Path&gt;" fill-rule="evenodd" class="s3" d="m999.7 773.8c-483.7 0-874.7-98.1-874.7-219.4 0-121.3 391-219.4 874.7-219.4 483.7 0 874.7 98.1 874.7 219.4 0 121.3-391 219.4-874.7 219.4z"/>
					<path id="&lt;Path&gt;" fill-rule="evenodd" class="s4" d="m1667.2 412.7c-13.4 118.2-399.4 213-874 213-267.7 0-507.1-30.1-667.6-77.6-0.2 2.1-0.6 4.2-0.6 6.3 0 121.1 391.6 219.4 874.7 219.4 483.1 0 874.7-98.3 874.7-219.4 0-54.1-78-103.5-207.2-141.7z"/>
					<path id="&lt;Compound Path&gt;" fill-rule="evenodd" class="s5" d="m999.7 734.7c-388.9 0-693.6-79.2-693.6-180.3 0-101.1 304.7-180.3 693.6-180.3 388.9 0 693.6 79.2 693.6 180.3 0 101.1-304.7 180.3-693.6 180.3zm0-342.8c-402.7 0-673.1 84-673.1 162.5 0 78.4 270.4 162.4 673.1 162.4 402.6 0 673.1-84 673.1-162.4 0-78.5-270.5-162.5-673.1-162.5z"/>
					<path id="&lt;Path&gt;" fill-rule="evenodd" class="s6" d="m1624.2 474.7c-5.3 4-10.9 8-17 11.9 42.5 21.6 65.6 44.9 65.6 67.8 0 78.4-270.5 162.4-673.1 162.4-332.3 0-574.3-57.2-648.9-121.3q-15.8-2.3-31.2-4.8c63 83.1 339.2 144 680.1 144 388.9 0 693.6-79.2 693.6-180.3 0-28.8-24.8-55.8-69.1-79.7z"/>
					<path id="&lt;Path&gt;" fill-rule="evenodd" class="s7" d="m1260.6 374.1c3.1 26.3-223.3 3.7-478 26.5-254.7 22.9-441.4 74.9-444.5 48.5-3.1-26.3 151.7-71 406.5-93.8 254.7-22.9 512.9-7.6 516 18.8z"/>
					<path id="&lt;Path&gt;" fill-rule="evenodd" class="s8" d="m436.5 447.9c62.2-9.4 150.3-25 254.6-37.6 28.5-3.7 58.4-6.8 89.6-9.5 0.6 0 1.3-0.1 1.9-0.2q1 0 2-0.1 4.6-0.4 9.3-0.8c200.5-16.9 381.2-6.6 443.5-15.1-73.9-6.8-153.8-10.5-237.7-10.5-234.5 0-438.3 28.8-563.2 73.8z"/>
					<g id="&lt;Group&gt;">
						<path id="&lt;Compound Path&gt;" fill-rule="evenodd" class="s4" d="m618.9 468.2c109.4 2.2 108.6 40 107.1 86.6-1.4 46.6-2.8 84.4-112.2 82.3-109.5-2.2-285.5-43.4-284.1-90.1 1.4-46.6 179.7-80.9 289.2-78.8zm3 142.8c40.8 0.8 41.7-25.3 42.6-57.4 1-32.2 1.7-58.2-39-59-40.8-0.8-107.5 24-108.5 56.1-1 32.2 64.2 59.5 104.9 60.3zm-161.5-25c23.6 0.5 24.2-15.8 24.8-35.9 0.6-20.1 1-36.4-22.6-36.9-23.6-0.4-62.2 15.1-62.8 35.2-0.6 20.1 37 37.1 60.6 37.6z"/>
						<g id="&lt;Group&gt;">
							<path id="&lt;Path&gt;" fill-rule="evenodd" class="s6" d="m465 498.6c23.6 0.5 23.2 16.8 22.6 36.9-0.3 8.7-0.6 16.5-2.8 22.8q0.3-4 0.4-8.2c0.6-20.1 1-36.4-22.6-36.9-19.7-0.3-49.6 10.5-59.4 25.8-0.5-1.7-1.1-3.4-1-5.2 0.6-20.1 39.3-35.6 62.8-35.2z"/>
							<path id="&lt;Path&gt;" fill-rule="evenodd" class="s6" d="m627.9 480c40.7 0.8 40 26.8 39.1 59-0.4 12.3-0.8 23.7-3.5 33.1 0.6-5.8 0.8-12 1-18.5 1-32.2 1.7-58.2-39.1-59-35.8-0.7-91.7 18.4-105.3 44.9-0.1-1.2-0.7-2.3-0.7-3.4 1-32.2 67.7-56.9 108.5-56.1z"/>
							<path id="&lt;Path&gt;" fill-rule="evenodd" class="s6" d="m616.2 622.4c79.1 1.6 101.7-17.8 108.7-46.2-3.5 36.2-19.1 62.7-111.1 60.9-109.5-2.2-285.5-43.4-284.1-90.1 0.1-3.4 1.4-6.7 3.3-10 9.8 44.7 177.3 83.4 283.2 85.4z"/>
						</g>
					</g>
				</g>
				<g id="&lt;Group&gt;">
					<path id="&lt;Path&gt;" fill-rule="evenodd" class="s6" d="m749.1 1060.1c0 0 149.6-54.6 239.5-52.6 89.9 2 190.4 91.5 190.4 91.5z"/>
					<path id="&lt;Path&gt;" fill-rule="evenodd" class="s6" d="m1400.8 1166.6q-0.3-0.2-0.6-0.4c-15.9-10.1-15.9-29.9 0-39.9q0.3-0.2 0.6-0.4c31.1-20.1 44.4-52.9 49.8-72.1 2.3-8.3-5-16.3-15-16.6-23.4-0.7-64.4 1.4-95.5 21.5-46.1 29.7-53.1 87.4-53.1 87.4q0 0 0.8 0.1-0.8 0.1-0.8 0.1c0 0 7 57.7 53.1 87.5 31.1 20 72.1 22.2 95.5 21.5 10-0.3 17.3-8.3 15-16.6-5.4-19.2-18.7-52.1-49.8-72.1z"/>
					<path id="&lt;Path&gt;" fill-rule="evenodd" class="s3" d="m1306.1 1138.2c17.8 59.7-298.1 147.6-507.2 147.6-142.3 0-256.5-85.6-250.3-147.6 2.1-20.9 41.1-78.1 250.3-78.1 209.1 0 499.9 53.6 507.2 78.1z"/>
					<path id="&lt;Path&gt;" fill-rule="evenodd" class="s4" d="m1300.9 1132.9c-69.3 54.6-315.9 115-489.2 115-132 0-239.7-73.6-249.7-133.8-9.3 9.5-12.8 18.2-13.4 24.1-6.2 62 108 147.6 250.3 147.6 209.1 0 525-87.9 507.2-147.6-0.5-1.7-2.3-3.5-5.2-5.3z"/>
					<path id="&lt;Path&gt;" fill-rule="evenodd" class="s6" d="m882.4 1229.8c19.7 20.7 32.3 54.4 38.9 76.7 3.7 12.3-4.4 20-16.5 15.8-22-7.7-55-21.8-74.8-42.6-31.7-33.1-31.9-56.8-17.4-70.6 14.5-13.8 38.1-12.5 69.8 20.7z"/>
					<path id="&lt;Path&gt;" fill-rule="evenodd" class="s6" d="m735.6 1157c0 42.2-9.9 82-27.5 117q6.6 1.8 13.4 3.3c17.7-36.2 27.6-77.1 27.6-120.3 0-33.3-5.9-65.3-16.7-94.7q-7.2 0.5-14 1.1c11.1 29 17.2 60.6 17.2 93.6z"/>
					<path id="&lt;Path&gt;" fill-rule="evenodd" class="s6" d="m675.5 1140.9c-7.5 0-13.5-6-13.5-13.4 0-7.5 6-13.5 13.5-13.5 7.4 0 13.4 6 13.4 13.5 0 7.4-6 13.4-13.4 13.4z"/>
				</g>
			</g>
		</g>
	</g>
</svg>