<svg version="1.2" xmlns="http://www.w3.org/2000/svg" viewBox="0 -1 500 501" width="500" height="501">
	<title>4</title>
	<defs>
		<linearGradient id="g1" x2="1" gradientUnits="userSpaceOnUse" gradientTransform="matrix(-82.543,499.4,-483.839,-79.971,434.954,-229.185)">
			<stop offset="0" stop-color="#ffd188"/>
			<stop offset=".5" stop-color="#e58e0e"/>
			<stop offset="1" stop-color="#5c3600"/>
		</linearGradient>
		<linearGradient id="g2" x2="1" gradientUnits="userSpaceOnUse" gradientTransform="matrix(-274.156,1588.233,-1727.01,-298.111,415.196,450.289)">
			<stop offset="0" stop-color="#aef4e9"/>
			<stop offset=".5" stop-color="#27ba9e"/>
			<stop offset="1" stop-color="#114939"/>
		</linearGradient>
		<linearGradient id="g3" x2="1" gradientUnits="userSpaceOnUse" gradientTransform="matrix(-72.675,515.093,-205.341,-28.972,322.924,89.313)">
			<stop offset="0" stop-color="#aef4e9"/>
			<stop offset=".5" stop-color="#27ba9e"/>
			<stop offset="1" stop-color="#114939"/>
		</linearGradient>
		<linearGradient id="g4" x2="1" gradientUnits="userSpaceOnUse" gradientTransform="matrix(-88.512,508.079,-337.768,-58.842,321.003,208.415)">
			<stop offset="0" stop-color="#ffaa88"/>
			<stop offset=".5" stop-color="#ce4b17"/>
			<stop offset="1" stop-color="#5c1700"/>
		</linearGradient>
	</defs>
	<style>
		.s0 { fill: url(#g1) } 
		.s1 { mix-blend-mode: soft-light;fill: #ffffff } 
		.s2 { fill: url(#g2) } 
		.s3 { fill: url(#g3) } 
		.s4 { fill: url(#g4) } 
		.s5 { opacity: .2;mix-blend-mode: multiply;fill: #114939 } 
	</style>
	<g id="BACKGROUND">
	</g>
	<g id="OBJECTS">
		<g id="&lt;Group&gt;">
			<g id="&lt;Group&gt;">
				<path id="&lt;Path&gt;" fill-rule="evenodd" class="s0" d="m256.7 130c-0.5-32.9 1.9-66.8 6.8-101.6 0.6-4.4 4.3-7.8 8.7-8.1 31.5-2.1 71.3 7.7 113.6 20.9 5.3 1.7 8 7.4 6.1 12.6-15.3 39.9-33.4 73.5-56.1 97.3-2 2.2-5.1 3.2-8.1 2.8-23.5-3.1-45.3-7.8-64.7-15.1-3.6-1.4-6.2-4.8-6.3-8.8z"/>
				<path id="&lt;Path&gt;" fill-rule="evenodd" class="s1" d="m287.4 29.5c-2.4 0.1-5 0.3-7.3 1.4-2.2 1-4.2 3-4.5 5.5-0.3 2.4 1 4.8 2.8 6.4 1.8 1.6 4.1 2.5 6.4 3.3 10.7 3.7 22.1 5.4 33.4 5.1 2.9-0.1 5.9-0.3 8.6-1.5 2.7-1.2 5.1-3.4 5.6-6.3 1.7-8.5-11.6-10.1-17-11.3-9.1-2.1-18.6-3-28-2.6z"/>
			</g>
			<path id="&lt;Path&gt;" fill-rule="evenodd" class="s2" d="m324.5 223.9c9.1-18.4 17.8-38.4 26.2-59.5l-104.2-14.4c-4.1 15.4-6.6 33.5-8 53.4-66.5 1.9-125.1 39-136.2 101.8-13.3 74.9 32 156.9 113.1 171.3 81.1 14.4 169.5-21.9 182.8-96.8 10.5-59.1-20.3-124-73.7-155.8z"/>
			<path id="&lt;Path&gt;" fill-rule="evenodd" class="s3" d="m231.1 119.6c-1.1 8.1-1.5 17-1.3 26.5 0.1 5.7 3.8 10.8 9.3 12.7 29.5 10 68.2 17.2 110.1 23.5 5.4 0.8 10.8-1.8 13.7-6.4 5.6-8.7 10.2-18.8 14.2-29.9 2.8-7.5-1.4-15.8-9.2-18-33.5-9.5-76.1-15.5-121.7-20.2-7.4-0.7-14.1 4.4-15.1 11.8z"/>
			<path id="&lt;Path&gt;" fill-rule="evenodd" class="s4" d="m322.8 393.7c-36.5-7.8-73.9-18.1-101.9-42.7-18.5-16.3-31.6-37.9-48.9-55.5-5.4-5.5-11.4-10.7-17.9-15-4-2.6-9.5-1.3-11.9 2.8-5 8.8-8.7 18.5-10.6 29.2-10.6 60 25.7 125.8 90.7 137.3 48.7 8.7 100.5-5.4 128-38.2 4.4-5.2 1.2-13-5.5-13.9-7.4-0.9-14.8-2.4-22-4z"/>
			<path id="&lt;Path&gt;" fill-rule="evenodd" class="s5" d="m388.6 299c-1.1 11-3.2 21.9-6.5 32.4-11.8 38.1-39.1 71.8-75.3 88.4-36.3 16.5-81.3 14.4-114.1-8.3-22.6-15.7-38.1-39.3-53.3-62.3-10.9-16.7-22.3-33.6-36.4-47.5-0.3 1.2-0.5 2.3-0.7 3.5-13.3 74.9 32 156.9 113.1 171.3 81.1 14.4 169.5-21.9 182.8-96.8 4.8-26.9 1-55-9.6-80.7z"/>
			<path id="&lt;Path&gt;" fill-rule="evenodd" class="s1" d="m170.1 235.2c-17 10.2-30.3 28.4-30.3 48.2 0.1 5.3 1.2 10.9 4.9 14.5 4.2 4.2 10.7 4.9 16.7 4.7 16.8-0.6 33.4-6.4 46.8-16.4 13.5-10.1 23.7-24.4 29-40.4 1.7-5.1 2.9-10.7 1.2-15.9-4.1-12.9-19.4-9.7-29.3-8.1-13.6 2.2-27.1 6.2-39 13.4z"/>
		</g>
	</g>
</svg>