<svg width="1440" height="1020" viewBox="0 0 1440 1020" fill="none" xmlns="http://www.w3.org/2000/svg">
<rect width="96" height="60" fill="#AEFF2B"/>
<rect x="96" width="96" height="60" fill="#72FF40"/>
<rect x="192" width="96" height="60" fill="#AEFF2B"/>
<rect x="288" width="96" height="60" fill="#72FF40"/>
<rect x="384" width="96" height="60" fill="#AEFF2B"/>
<rect x="480" width="96" height="60" fill="#72FF40"/>
<rect x="576" width="96" height="60" fill="#AEFF2B"/>
<rect x="672" width="96" height="60" fill="#72FF40"/>
<rect x="768" width="96" height="60" fill="#AEFF2B"/>
<rect x="864" width="96" height="60" fill="#72FF40"/>
<rect x="960" width="96" height="60" fill="#AEFF2B"/>
<rect x="1056" width="96" height="60" fill="#72FF40"/>
<rect x="1152" width="96" height="60" fill="#AEFF2B"/>
<rect x="1248" width="96" height="60" fill="#72FF40"/>
<rect x="1344" width="96" height="60" fill="#AEFF2B"/>
<rect x="96" y="60" width="96" height="60" fill="#AEFF2B"/>
<rect x="192" y="60" width="96" height="60" fill="#72FF40"/>
<rect x="288" y="60" width="96" height="60" fill="#AEFF2B"/>
<rect x="384" y="60" width="96" height="60" fill="#72FF40"/>
<rect x="480" y="60" width="96" height="60" fill="#AEFF2B"/>
<rect x="576" y="60" width="96" height="60" fill="#72FF40"/>
<rect x="672" y="60" width="96" height="60" fill="#AEFF2B"/>
<rect x="768" y="60" width="96" height="60" fill="#72FF40"/>
<rect x="864" y="60" width="96" height="60" fill="#AEFF2B"/>
<rect x="960" y="60" width="96" height="60" fill="#72FF40"/>
<rect x="1056" y="60" width="96" height="60" fill="#AEFF2B"/>
<rect x="1152" y="60" width="96" height="60" fill="#72FF40"/>
<rect x="1248" y="60" width="96" height="60" fill="#AEFF2B"/>
<rect x="1344" y="60" width="96" height="60" fill="#72FF40"/>
<rect y="60" width="96" height="60" fill="#72FF40"/>
<rect y="120" width="96" height="60" fill="#AEFF2B"/>
<rect x="96" y="120" width="96" height="60" fill="#72FF40"/>
<rect x="192" y="120" width="96" height="60" fill="#AEFF2B"/>
<rect x="288" y="120" width="96" height="60" fill="#72FF40"/>
<rect x="384" y="120" width="96" height="60" fill="#AEFF2B"/>
<rect x="480" y="120" width="96" height="60" fill="#72FF40"/>
<rect x="576" y="120" width="96" height="60" fill="#AEFF2B"/>
<rect x="672" y="120" width="96" height="60" fill="#72FF40"/>
<rect x="768" y="120" width="96" height="60" fill="#AEFF2B"/>
<rect x="864" y="120" width="96" height="60" fill="#72FF40"/>
<rect x="960" y="120" width="96" height="60" fill="#AEFF2B"/>
<rect x="1056" y="120" width="96" height="60" fill="#72FF40"/>
<rect x="1152" y="120" width="96" height="60" fill="#AEFF2B"/>
<rect x="1248" y="120" width="96" height="60" fill="#72FF40"/>
<rect x="1344" y="120" width="96" height="60" fill="#AEFF2B"/>
<rect x="96" y="180" width="96" height="60" fill="#AEFF2B"/>
<rect x="192" y="180" width="96" height="60" fill="#72FF40"/>
<rect x="288" y="180" width="96" height="60" fill="#AEFF2B"/>
<rect x="384" y="180" width="96" height="60" fill="#72FF40"/>
<rect x="480" y="180" width="96" height="60" fill="#AEFF2B"/>
<rect x="576" y="180" width="96" height="60" fill="#72FF40"/>
<rect x="672" y="180" width="96" height="60" fill="#AEFF2B"/>
<rect x="768" y="180" width="96" height="60" fill="#72FF40"/>
<rect x="864" y="180" width="96" height="60" fill="#AEFF2B"/>
<rect x="960" y="180" width="96" height="60" fill="#72FF40"/>
<rect x="1056" y="180" width="96" height="60" fill="#AEFF2B"/>
<rect x="1152" y="180" width="96" height="60" fill="#72FF40"/>
<rect x="1248" y="180" width="96" height="60" fill="#AEFF2B"/>
<rect x="1344" y="180" width="96" height="60" fill="#72FF40"/>
<rect y="180" width="96" height="60" fill="#72FF40"/>
<rect y="240" width="96" height="60" fill="#AEFF2B"/>
<rect x="96" y="240" width="96" height="60" fill="#72FF40"/>
<rect x="192" y="240" width="96" height="60" fill="#AEFF2B"/>
<rect x="288" y="240" width="96" height="60" fill="#72FF40"/>
<rect x="384" y="240" width="96" height="60" fill="#AEFF2B"/>
<rect x="480" y="240" width="96" height="60" fill="#72FF40"/>
<rect x="576" y="240" width="96" height="60" fill="#AEFF2B"/>
<rect x="672" y="240" width="96" height="60" fill="#72FF40"/>
<rect x="768" y="240" width="96" height="60" fill="#AEFF2B"/>
<rect x="864" y="240" width="96" height="60" fill="#72FF40"/>
<rect x="960" y="240" width="96" height="60" fill="#AEFF2B"/>
<rect x="1056" y="240" width="96" height="60" fill="#72FF40"/>
<rect x="1152" y="240" width="96" height="60" fill="#AEFF2B"/>
<rect x="1248" y="240" width="96" height="60" fill="#72FF40"/>
<rect x="1344" y="240" width="96" height="60" fill="#AEFF2B"/>
<rect x="96" y="300" width="96" height="60" fill="#AEFF2B"/>
<rect x="192" y="300" width="96" height="60" fill="#72FF40"/>
<rect x="288" y="300" width="96" height="60" fill="#AEFF2B"/>
<rect x="384" y="300" width="96" height="60" fill="#72FF40"/>
<rect x="480" y="300" width="96" height="60" fill="#AEFF2B"/>
<rect x="576" y="300" width="96" height="60" fill="#72FF40"/>
<rect x="672" y="300" width="96" height="60" fill="#AEFF2B"/>
<rect x="768" y="300" width="96" height="60" fill="#72FF40"/>
<rect x="864" y="300" width="96" height="60" fill="#AEFF2B"/>
<rect x="960" y="300" width="96" height="60" fill="#72FF40"/>
<rect x="1056" y="300" width="96" height="60" fill="#AEFF2B"/>
<rect x="1152" y="300" width="96" height="60" fill="#72FF40"/>
<rect x="1248" y="300" width="96" height="60" fill="#AEFF2B"/>
<rect x="1344" y="300" width="96" height="60" fill="#72FF40"/>
<rect y="300" width="96" height="60" fill="#72FF40"/>
<rect y="360" width="96" height="60" fill="#AEFF2B"/>
<rect x="96" y="360" width="96" height="60" fill="#72FF40"/>
<rect x="192" y="360" width="96" height="60" fill="#AEFF2B"/>
<rect x="288" y="360" width="96" height="60" fill="#72FF40"/>
<rect x="384" y="360" width="96" height="60" fill="#AEFF2B"/>
<rect x="480" y="360" width="96" height="60" fill="#72FF40"/>
<rect x="576" y="360" width="96" height="60" fill="#AEFF2B"/>
<rect x="672" y="360" width="96" height="60" fill="#72FF40"/>
<rect x="768" y="360" width="96" height="60" fill="#AEFF2B"/>
<rect x="864" y="360" width="96" height="60" fill="#72FF40"/>
<rect x="960" y="360" width="96" height="60" fill="#AEFF2B"/>
<rect x="1056" y="360" width="96" height="60" fill="#72FF40"/>
<rect x="1152" y="360" width="96" height="60" fill="#AEFF2B"/>
<rect x="1248" y="360" width="96" height="60" fill="#72FF40"/>
<rect x="1344" y="360" width="96" height="60" fill="#AEFF2B"/>
<rect x="96" y="420" width="96" height="60" fill="#AEFF2B"/>
<rect x="192" y="420" width="96" height="60" fill="#72FF40"/>
<rect x="288" y="420" width="96" height="60" fill="#AEFF2B"/>
<rect x="384" y="420" width="96" height="60" fill="#72FF40"/>
<rect x="480" y="420" width="96" height="60" fill="#AEFF2B"/>
<rect x="576" y="420" width="96" height="60" fill="#72FF40"/>
<rect x="672" y="420" width="96" height="60" fill="#AEFF2B"/>
<rect x="768" y="420" width="96" height="60" fill="#72FF40"/>
<rect x="864" y="420" width="96" height="60" fill="#AEFF2B"/>
<rect x="960" y="420" width="96" height="60" fill="#72FF40"/>
<rect x="1056" y="420" width="96" height="60" fill="#AEFF2B"/>
<rect x="1152" y="420" width="96" height="60" fill="#72FF40"/>
<rect x="1248" y="420" width="96" height="60" fill="#AEFF2B"/>
<rect x="1344" y="420" width="96" height="60" fill="#72FF40"/>
<rect y="420" width="96" height="60" fill="#72FF40"/>
<rect y="480" width="96" height="60" fill="#AEFF2B"/>
<rect x="96" y="480" width="96" height="60" fill="#72FF40"/>
<rect x="192" y="480" width="96" height="60" fill="#AEFF2B"/>
<rect x="288" y="480" width="96" height="60" fill="#72FF40"/>
<rect x="384" y="480" width="96" height="60" fill="#AEFF2B"/>
<rect x="480" y="480" width="96" height="60" fill="#72FF40"/>
<rect x="576" y="480" width="96" height="60" fill="#AEFF2B"/>
<rect x="672" y="480" width="96" height="60" fill="#72FF40"/>
<rect x="768" y="480" width="96" height="60" fill="#AEFF2B"/>
<rect x="864" y="480" width="96" height="60" fill="#72FF40"/>
<rect x="960" y="480" width="96" height="60" fill="#AEFF2B"/>
<rect x="1056" y="480" width="96" height="60" fill="#72FF40"/>
<rect x="1152" y="480" width="96" height="60" fill="#AEFF2B"/>
<rect x="1248" y="480" width="96" height="60" fill="#72FF40"/>
<rect x="1344" y="480" width="96" height="60" fill="#AEFF2B"/>
<rect x="96" y="540" width="96" height="60" fill="#AEFF2B"/>
<rect x="192" y="540" width="96" height="60" fill="#72FF40"/>
<rect x="288" y="540" width="96" height="60" fill="#AEFF2B"/>
<rect x="384" y="540" width="96" height="60" fill="#72FF40"/>
<rect x="480" y="540" width="96" height="60" fill="#AEFF2B"/>
<rect x="576" y="540" width="96" height="60" fill="#72FF40"/>
<rect x="672" y="540" width="96" height="60" fill="#AEFF2B"/>
<rect x="768" y="540" width="96" height="60" fill="#72FF40"/>
<rect x="864" y="540" width="96" height="60" fill="#AEFF2B"/>
<rect x="960" y="540" width="96" height="60" fill="#72FF40"/>
<rect x="1056" y="540" width="96" height="60" fill="#AEFF2B"/>
<rect x="1152" y="540" width="96" height="60" fill="#72FF40"/>
<rect x="1248" y="540" width="96" height="60" fill="#AEFF2B"/>
<rect x="1344" y="540" width="96" height="60" fill="#72FF40"/>
<rect y="540" width="96" height="60" fill="#72FF40"/>
<rect y="600" width="96" height="60" fill="#AEFF2B"/>
<rect x="96" y="600" width="96" height="60" fill="#72FF40"/>
<rect x="192" y="600" width="96" height="60" fill="#AEFF2B"/>
<rect x="288" y="600" width="96" height="60" fill="#72FF40"/>
<rect x="384" y="600" width="96" height="60" fill="#AEFF2B"/>
<rect x="480" y="600" width="96" height="60" fill="#72FF40"/>
<rect x="576" y="600" width="96" height="60" fill="#AEFF2B"/>
<rect x="672" y="600" width="96" height="60" fill="#72FF40"/>
<rect x="768" y="600" width="96" height="60" fill="#AEFF2B"/>
<rect x="864" y="600" width="96" height="60" fill="#72FF40"/>
<rect x="960" y="600" width="96" height="60" fill="#AEFF2B"/>
<rect x="1056" y="600" width="96" height="60" fill="#72FF40"/>
<rect x="1152" y="600" width="96" height="60" fill="#AEFF2B"/>
<rect x="1248" y="600" width="96" height="60" fill="#72FF40"/>
<rect x="1344" y="600" width="96" height="60" fill="#AEFF2B"/>
<rect x="96" y="660" width="96" height="60" fill="#AEFF2B"/>
<rect x="192" y="660" width="96" height="60" fill="#72FF40"/>
<rect x="288" y="660" width="96" height="60" fill="#AEFF2B"/>
<rect x="384" y="660" width="96" height="60" fill="#72FF40"/>
<rect x="480" y="660" width="96" height="60" fill="#AEFF2B"/>
<rect x="576" y="660" width="96" height="60" fill="#72FF40"/>
<rect x="672" y="660" width="96" height="60" fill="#AEFF2B"/>
<rect x="768" y="660" width="96" height="60" fill="#72FF40"/>
<rect x="864" y="660" width="96" height="60" fill="#AEFF2B"/>
<rect x="960" y="660" width="96" height="60" fill="#72FF40"/>
<rect x="1056" y="660" width="96" height="60" fill="#AEFF2B"/>
<rect x="1152" y="660" width="96" height="60" fill="#72FF40"/>
<rect x="1248" y="660" width="96" height="60" fill="#AEFF2B"/>
<rect x="1344" y="660" width="96" height="60" fill="#72FF40"/>
<rect y="660" width="96" height="60" fill="#72FF40"/>
<rect y="720" width="96" height="60" fill="#AEFF2B"/>
<rect x="96" y="720" width="96" height="60" fill="#72FF40"/>
<rect x="192" y="720" width="96" height="60" fill="#AEFF2B"/>
<rect x="288" y="720" width="96" height="60" fill="#72FF40"/>
<rect x="384" y="720" width="96" height="60" fill="#AEFF2B"/>
<rect x="480" y="720" width="96" height="60" fill="#72FF40"/>
<rect x="576" y="720" width="96" height="60" fill="#AEFF2B"/>
<rect x="672" y="720" width="96" height="60" fill="#72FF40"/>
<rect x="768" y="720" width="96" height="60" fill="#AEFF2B"/>
<rect x="864" y="720" width="96" height="60" fill="#72FF40"/>
<rect x="960" y="720" width="96" height="60" fill="#AEFF2B"/>
<rect x="1056" y="720" width="96" height="60" fill="#72FF40"/>
<rect x="1152" y="720" width="96" height="60" fill="#AEFF2B"/>
<rect x="1248" y="720" width="96" height="60" fill="#72FF40"/>
<rect x="1344" y="720" width="96" height="60" fill="#AEFF2B"/>
<rect y="840" width="96" height="60" fill="#AEFF2B"/>
<rect x="96" y="840" width="96" height="60" fill="#72FF40"/>
<rect x="192" y="840" width="96" height="60" fill="#AEFF2B"/>
<rect x="288" y="840" width="96" height="60" fill="#72FF40"/>
<rect x="384" y="840" width="96" height="60" fill="#AEFF2B"/>
<rect x="480" y="840" width="96" height="60" fill="#72FF40"/>
<rect x="576" y="840" width="96" height="60" fill="#AEFF2B"/>
<rect x="672" y="840" width="96" height="60" fill="#72FF40"/>
<rect x="768" y="840" width="96" height="60" fill="#AEFF2B"/>
<rect x="864" y="840" width="96" height="60" fill="#72FF40"/>
<rect x="960" y="840" width="96" height="60" fill="#AEFF2B"/>
<rect x="1056" y="840" width="96" height="60" fill="#72FF40"/>
<rect x="1152" y="840" width="96" height="60" fill="#AEFF2B"/>
<rect x="1248" y="840" width="96" height="60" fill="#72FF40"/>
<rect x="1344" y="840" width="96" height="60" fill="#AEFF2B"/>
<rect y="960" width="96" height="60" fill="#AEFF2B"/>
<rect x="96" y="960" width="96" height="60" fill="#72FF40"/>
<rect x="192" y="960" width="96" height="60" fill="#AEFF2B"/>
<rect x="288" y="960" width="96" height="60" fill="#72FF40"/>
<rect x="384" y="960" width="96" height="60" fill="#AEFF2B"/>
<rect x="480" y="960" width="96" height="60" fill="#72FF40"/>
<rect x="576" y="960" width="96" height="60" fill="#AEFF2B"/>
<rect x="672" y="960" width="96" height="60" fill="#72FF40"/>
<rect x="768" y="960" width="96" height="60" fill="#AEFF2B"/>
<rect x="864" y="960" width="96" height="60" fill="#72FF40"/>
<rect x="960" y="960" width="96" height="60" fill="#AEFF2B"/>
<rect x="1056" y="960" width="96" height="60" fill="#72FF40"/>
<rect x="1152" y="960" width="96" height="60" fill="#AEFF2B"/>
<rect x="1248" y="960" width="96" height="60" fill="#72FF40"/>
<rect x="1344" y="960" width="96" height="60" fill="#AEFF2B"/>
<rect x="96" y="780" width="96" height="60" fill="#AEFF2B"/>
<rect x="192" y="780" width="96" height="60" fill="#72FF40"/>
<rect x="288" y="780" width="96" height="60" fill="#AEFF2B"/>
<rect x="384" y="780" width="96" height="60" fill="#72FF40"/>
<rect x="480" y="780" width="96" height="60" fill="#AEFF2B"/>
<rect x="576" y="780" width="96" height="60" fill="#72FF40"/>
<rect x="672" y="780" width="96" height="60" fill="#AEFF2B"/>
<rect x="768" y="780" width="96" height="60" fill="#72FF40"/>
<rect x="864" y="780" width="96" height="60" fill="#AEFF2B"/>
<rect x="960" y="780" width="96" height="60" fill="#72FF40"/>
<rect x="1056" y="780" width="96" height="60" fill="#AEFF2B"/>
<rect x="1152" y="780" width="96" height="60" fill="#72FF40"/>
<rect x="1248" y="780" width="96" height="60" fill="#AEFF2B"/>
<rect x="1344" y="780" width="96" height="60" fill="#72FF40"/>
<rect y="780" width="96" height="60" fill="#72FF40"/>
<rect x="96" y="900" width="96" height="60" fill="#AEFF2B"/>
<rect x="192" y="900" width="96" height="60" fill="#72FF40"/>
<rect x="288" y="900" width="96" height="60" fill="#AEFF2B"/>
<rect x="384" y="900" width="96" height="60" fill="#72FF40"/>
<rect x="480" y="900" width="96" height="60" fill="#AEFF2B"/>
<rect x="576" y="900" width="96" height="60" fill="#72FF40"/>
<rect x="672" y="900" width="96" height="60" fill="#AEFF2B"/>
<rect x="768" y="900" width="96" height="60" fill="#72FF40"/>
<rect x="864" y="900" width="96" height="60" fill="#AEFF2B"/>
<rect x="960" y="900" width="96" height="60" fill="#72FF40"/>
<rect x="1056" y="900" width="96" height="60" fill="#AEFF2B"/>
<rect x="1152" y="900" width="96" height="60" fill="#72FF40"/>
<rect x="1248" y="900" width="96" height="60" fill="#AEFF2B"/>
<rect x="1344" y="900" width="96" height="60" fill="#72FF40"/>
<rect y="900" width="96" height="60" fill="#72FF40"/>
</svg>
