<svg width="1536" height="960" viewBox="0 0 1536 960" fill="none" xmlns="http://www.w3.org/2000/svg">
<rect width="192" height="120" fill="#008C1F"/>
<rect x="192" width="192" height="120" fill="#69B433"/>
<rect x="384" width="192" height="120" fill="#008C1F"/>
<rect x="576" width="192" height="120" fill="#69B433"/>
<rect x="768" width="192" height="120" fill="#008C1F"/>
<rect x="960" width="192" height="120" fill="#69B433"/>
<rect x="1152" width="192" height="120" fill="#008C1F"/>
<rect x="1344" width="192" height="120" fill="#69B433"/>
<rect y="240" width="192" height="120" fill="#008C1F"/>
<rect x="192" y="240" width="192" height="120" fill="#69B433"/>
<rect x="384" y="240" width="192" height="120" fill="#008C1F"/>
<rect x="576" y="240" width="192" height="120" fill="#69B433"/>
<rect x="768" y="240" width="192" height="120" fill="#008C1F"/>
<rect x="960" y="240" width="192" height="120" fill="#69B433"/>
<rect x="1152" y="240" width="192" height="120" fill="#008C1F"/>
<rect x="1344" y="240" width="192" height="120" fill="#69B433"/>
<rect y="480" width="192" height="120" fill="#008C1F"/>
<rect x="192" y="480" width="192" height="120" fill="#69B433"/>
<rect x="384" y="480" width="192" height="120" fill="#008C1F"/>
<rect x="576" y="480" width="192" height="120" fill="#69B433"/>
<rect x="768" y="480" width="192" height="120" fill="#008C1F"/>
<rect x="960" y="480" width="192" height="120" fill="#69B433"/>
<rect x="1152" y="480" width="192" height="120" fill="#008C1F"/>
<rect x="1344" y="480" width="192" height="120" fill="#69B433"/>
<rect y="720" width="192" height="120" fill="#008C1F"/>
<rect x="192" y="720" width="192" height="120" fill="#69B433"/>
<rect x="384" y="720" width="192" height="120" fill="#008C1F"/>
<rect x="576" y="720" width="192" height="120" fill="#69B433"/>
<rect x="768" y="720" width="192" height="120" fill="#008C1F"/>
<rect x="960" y="720" width="192" height="120" fill="#69B433"/>
<rect x="1152" y="720" width="192" height="120" fill="#008C1F"/>
<rect x="1344" y="720" width="192" height="120" fill="#69B433"/>
<rect x="192" y="120" width="192" height="120" fill="#008C1F"/>
<rect x="384" y="120" width="192" height="120" fill="#69B433"/>
<rect x="576" y="120" width="192" height="120" fill="#008C1F"/>
<rect x="768" y="120" width="192" height="120" fill="#69B433"/>
<rect x="960" y="120" width="192" height="120" fill="#008C1F"/>
<rect x="1152" y="120" width="192" height="120" fill="#69B433"/>
<rect x="1344" y="120" width="192" height="120" fill="#008C1F"/>
<rect y="120" width="192" height="120" fill="#69B433"/>
<rect x="192" y="360" width="192" height="120" fill="#008C1F"/>
<rect x="384" y="360" width="192" height="120" fill="#69B433"/>
<rect x="576" y="360" width="192" height="120" fill="#008C1F"/>
<rect x="768" y="360" width="192" height="120" fill="#69B433"/>
<rect x="960" y="360" width="192" height="120" fill="#008C1F"/>
<rect x="1152" y="360" width="192" height="120" fill="#69B433"/>
<rect x="1344" y="360" width="192" height="120" fill="#008C1F"/>
<rect y="360" width="192" height="120" fill="#69B433"/>
<rect x="192" y="600" width="192" height="120" fill="#008C1F"/>
<rect x="384" y="600" width="192" height="120" fill="#69B433"/>
<rect x="576" y="600" width="192" height="120" fill="#008C1F"/>
<rect x="768" y="600" width="192" height="120" fill="#69B433"/>
<rect x="960" y="600" width="192" height="120" fill="#008C1F"/>
<rect x="1152" y="600" width="192" height="120" fill="#69B433"/>
<rect x="1344" y="600" width="192" height="120" fill="#008C1F"/>
<rect y="600" width="192" height="120" fill="#69B433"/>
<rect x="192" y="840" width="192" height="120" fill="#008C1F"/>
<rect x="384" y="840" width="192" height="120" fill="#69B433"/>
<rect x="576" y="840" width="192" height="120" fill="#008C1F"/>
<rect x="768" y="840" width="192" height="120" fill="#69B433"/>
<rect x="960" y="840" width="192" height="120" fill="#008C1F"/>
<rect x="1152" y="840" width="192" height="120" fill="#69B433"/>
<rect x="1344" y="840" width="192" height="120" fill="#008C1F"/>
<rect y="840" width="192" height="120" fill="#69B433"/>
</svg>
